<?xml version="1.0" encoding="utf-8"?>
<!-- Generator: Adobe Illustrator 21.0.0, SVG Export Plug-In . SVG Version: 6.00 Build 0)  -->
<svg version="1.1" id="Layer_1" xmlns="http://www.w3.org/2000/svg" xmlns:xlink="http://www.w3.org/1999/xlink" x="0px" y="0px"
	 viewBox="0 0 899 154" style="enable-background:new 0 0 899 154;" xml:space="preserve">
<style type="text/css">
	.st0{fill:#00143F;}
	.st1{filter:url(#Adobe_OpacityMaskFilter);}
	.st2{fill:#FFFFFF;}
	.st3{mask:url(#mask-2);fill:#00143F;}
	.st4{filter:url(#Adobe_OpacityMaskFilter_1_);}
	.st5{mask:url(#mask-4);fill:#00143F;}
</style>
<title>8F0D8D3D-862B-4A7B-9F1A-746DB36576C8</title>
<desc>Created with sketchtool.</desc>
<g id="Page-1">
	<g id="Desktop-HD" transform="translate(-249.000000, -205.000000)">
		<g id="Top" transform="translate(238.000000, 204.000000)">
			<g id="electrode-logo" transform="translate(11.000000, 0.000000)">
				<g id="Group-3" transform="translate(562.630966, 0.882872)">
					<path id="Fill-1" class="st0" d="M35.7,39.7c-0.7,0-1.3-0.3-1.6-0.9l-5-8.4l-4.2,7.8c-0.4,0.7-1.2,1.1-2,1
						c-0.8-0.1-1.4-0.8-1.6-1.5l-3.7-20.5l-3.8,12.1c-0.3,0.8-1,1.3-1.8,1.3H2.3c-1.1,0-1.9-0.9-1.9-1.9c0-1.1,0.9-1.9,1.9-1.9h8.3
						l5.8-18.1c0.3-0.8,1.1-1.4,1.9-1.3c0.9,0.1,1.6,0.7,1.8,1.6l4.1,22.7l3.2-5.9c0.3-0.6,1-1,1.6-1c0.7,0,1.3,0.3,1.7,0.9l4.3,7.2
						l7.4-31.2c0.2-0.9,1-1.5,1.9-1.5c0.9,0,1.7,0.7,1.8,1.5l4.8,25.2l15.1,0.7c1,0,1.9,0.9,1.8,2c0,1.1-0.9,1.9-2,1.8l-16.6-0.7
						c-0.9,0-1.6-0.7-1.8-1.6l-3.4-17.8l-6.4,27c-0.2,0.8-0.8,1.3-1.6,1.4C35.9,39.7,35.8,39.7,35.7,39.7"/>
				</g>
				<g id="Group-6" transform="translate(530.151339, 22.876115)">
					<g id="Clip-5">
					</g>
					<defs>
						<filter id="Adobe_OpacityMaskFilter" filterUnits="userSpaceOnUse" x="0.9" y="0.7" width="131.6" height="131.3">
							<feColorMatrix  type="matrix" values="1 0 0 0 0  0 1 0 0 0  0 0 1 0 0  0 0 0 1 0"/>
						</filter>
					</defs>
					<mask maskUnits="userSpaceOnUse" x="0.9" y="0.7" width="131.6" height="131.3" id="mask-2">
						<g class="st1">
							<polygon id="path-1" class="st2" points="0.9,132 132.5,132 132.5,0.7 0.9,0.7 							"/>
						</g>
					</mask>
					<path id="Fill-4" class="st3" d="M66.7,119.9c-21.6,0-39.1-17.5-39.1-39.1c0-21.6,17.5-39.1,39.1-39.1
						c21.6,0,39.1,17.5,39.1,39.1C105.8,102.4,88.3,119.9,66.7,119.9 M114.7,60.1l-1.5-0.1l-0.7-1.4c-2.7-5.6-6.5-10.7-11.2-15
						l-1.6-1.5l15.1-25.5l1.3-0.2c3.9-0.6,6.6-3.9,6.6-7.8c0-4.3-3.5-7.9-7.9-7.9c-4.4,0-7.9,3.5-7.9,7.9c0,1.3,0.3,2.6,0.9,3.7
						l0.7,1.4l-14.9,24l-2.3-1.3c-7.5-4.2-16-6.5-24.7-6.5h-0.1h0c-8.6,0-17.2,2.3-24.7,6.5l-2.3,1.3L24.6,13.3l0.6-1.3
						c0.5-1.1,0.8-2.2,0.8-3.4c0-4.3-3.5-7.9-7.9-7.9c-4.4,0-7.9,3.5-7.9,7.9c0,4.1,3,7.4,7.1,7.8l1.4,0.1l15,25.5l-1.6,1.5
						c-4.7,4.4-8.4,9.4-11.2,15L20.3,60l-1.5,0.1C8.6,61.1,0.9,69.5,0.9,79.7c0,9.7,7.3,18.1,16.9,19.5l1.5,0.2l0.6,1.4
						c8,18.8,26.3,31,46.8,31.1h0h0.1c20.4-0.1,38.8-12.3,46.8-31.1l0.6-1.4l1.5-0.2c9.6-1.4,16.9-9.8,16.9-19.5
						C132.5,69.5,124.8,61.1,114.7,60.1"/>
				</g>
				<path id="Fill-7" class="st0" d="M617.3,94.7c0,3.1-2.5,5.6-5.6,5.6c-3.1,0-5.6-2.5-5.6-5.6c0-3.1,2.5-5.6,5.6-5.6
					C614.8,89.1,617.3,91.6,617.3,94.7"/>
				<path id="Fill-9" class="st0" d="M587.7,94.7c0,3.1-2.5,5.6-5.6,5.6c-3.1,0-5.6-2.5-5.6-5.6c0-3.1,2.5-5.6,5.6-5.6
					C585.2,89.1,587.7,91.6,587.7,94.7"/>
				<g id="Group-13" transform="translate(0.000000, 49.058547)">
					<g id="Clip-12">
					</g>
					<defs>
						<filter id="Adobe_OpacityMaskFilter_1_" filterUnits="userSpaceOnUse" x="0" y="0" width="92" height="101.8">
							<feColorMatrix  type="matrix" values="1 0 0 0 0  0 1 0 0 0  0 0 1 0 0  0 0 0 1 0"/>
						</filter>
					</defs>
					<mask maskUnits="userSpaceOnUse" x="0" y="0" width="92" height="101.8" id="mask-4">
						<g class="st4">
							<polygon id="path-3" class="st2" points="0,0 0,101.8 92,101.8 92,0 							"/>
						</g>
					</mask>
					<path id="Fill-11" class="st5" d="M77.5,45.5C76,27.8,65.8,12.3,46.4,12.3c-17,0-29.8,14.1-31.7,33.2H77.5z M48.6,101.8
						C21.9,101.8,0,81.3,0,51.1v-0.4C0,22.7,19.8,0,46.8,0C75.6,0,92,23.6,92,49.4c0,4-3.2,6.8-6.8,6.8H14.7c2.1,21.1,17,33,34.3,33
						c12.1,0,20.9-4.7,28.1-11.3c1.1-0.9,2.5-1.7,4.1-1.7c3.6,0,6.4,2.8,6.4,6.2c0,1.7-0.8,3.4-2.3,4.7
						C76.2,96,65.2,101.8,48.6,101.8L48.6,101.8z"/>
				</g>
				<path id="Fill-14" class="st0" d="M119,17.4c0-4,3.2-7.4,7.2-7.4c4.1,0,7.4,3.4,7.4,7.4v124.8c0,4.1-3,7.3-7.2,7.3
					c-4.1,0-7.4-3.2-7.4-7.3V17.4z"/>
				<path id="Fill-16" class="st0" d="M238.7,94.5c-1.5-17.7-11.7-33.2-31.1-33.2c-17,0-29.8,14.1-31.7,33.2H238.7z M209.9,150.9
					c-26.8,0-48.6-20.5-48.6-50.7v-0.4c0-28.1,19.8-50.7,46.8-50.7c28.8,0,45.3,23.6,45.3,49.4c0,4-3.2,6.8-6.8,6.8h-70.5
					c2.1,21.1,17,33,34.3,33c12.1,0,20.9-4.7,28.1-11.3c1.1-0.9,2.5-1.7,4.1-1.7c3.6,0,6.4,2.8,6.4,6.2c0,1.7-0.8,3.4-2.3,4.7
					C237.4,145,226.5,150.9,209.9,150.9L209.9,150.9z"/>
				<path id="Fill-18" class="st0" d="M272.8,100.4V100c0-27.5,21.5-50.9,50-50.9c16.2,0,27.2,6.2,35.8,14.1
					c1.1,0.9,2.3,2.8,2.3,5.1c0,4-3.2,7-7,7c-1.9,0-3.6-0.8-4.7-1.7c-7-6.4-14.9-11.7-26.6-11.7c-19.8,0-34.9,16.8-34.9,37.7v0.4
					c0,21.1,15.5,37.9,35.8,37.9c11.1,0,20-5.1,27.2-11.9c0.9-0.9,2.3-1.9,4.1-1.9c3.6,0,6.6,3.2,6.6,6.6c0,1.7-0.8,3.4-1.9,4.5
					c-9.2,9.2-20.4,15.6-36.8,15.6C294.3,150.9,272.8,127.7,272.8,100.4"/>
				<path id="Fill-20" class="st0" d="M391.6,122.8V64h-7.9c-3.4,0-6.4-3-6.4-6.4c0-3.6,3-6.4,6.4-6.4h7.9v-23c0-4,3-7.3,7.2-7.3
					c4,0,7.4,3.4,7.4,7.3v23h25.3c3.6,0,6.6,3,6.6,6.4c0,3.6-3,6.4-6.6,6.4h-25.3v56.9c0,11.9,6.6,16.2,16.4,16.2
					c5.1,0,7.7-1.3,8.9-1.3c3.4,0,6.2,2.8,6.2,6.2c0,2.6-1.7,4.7-4.1,5.7c-4.1,1.7-8.7,2.6-14.3,2.6
					C403.5,150.3,391.6,142.6,391.6,122.8"/>
				<path id="Fill-22" class="st0" d="M462.7,57.6c0-4,3.2-7.3,7.2-7.3c4.1,0,7.4,3.2,7.4,7.3v18.3c7.2-16.2,21.3-26,33.6-26
					c4.3,0,7.2,3.2,7.2,7.4c0,4-2.6,6.8-6.4,7.3c-18.9,2.3-34.3,16.4-34.3,44.5v33.2c0,4-3,7.3-7.2,7.3c-4.1,0-7.4-3.2-7.4-7.3V57.6
					z"/>
				<path id="Fill-24" class="st0" d="M697,99.6v0.4c0,23,16,37.7,34.3,37.7c18.1,0,35.3-15.3,35.3-37.7v-0.4
					c0-22.4-17.2-37.5-35.3-37.5C712.5,62.1,697,76.1,697,99.6L697,99.6z M780.6,142.2c0,4.1-3.2,7.3-7.2,7.3
					c-4.1,0-7.4-3.2-7.4-7.3V129c-7.9,11.7-19.4,21.7-37.3,21.7c-23.4,0-46.6-18.5-46.6-50.5v-0.4c0-31.9,23.2-50.7,46.6-50.7
					c18.1,0,29.8,9.8,37.3,20.7V17.4c0-4.1,3-7.3,7.2-7.3c4.1,0,7.4,3.2,7.4,7.3V142.2z"/>
				<path id="Fill-26" class="st0" d="M884.5,94.5c-1.5-17.7-11.7-33.2-31.1-33.2c-17,0-29.8,14.1-31.7,33.2H884.5z M855.6,150.9
					c-26.8,0-48.6-20.5-48.6-50.7v-0.4c0-28.1,19.8-50.7,46.8-50.7c28.8,0,45.3,23.6,45.3,49.4c0,4-3.2,6.8-6.8,6.8h-70.5
					c2.1,21.1,17,33,34.3,33c12.1,0,20.9-4.7,28.1-11.3c1.1-0.9,2.5-1.7,4.1-1.7c3.6,0,6.4,2.8,6.4,6.2c0,1.7-0.8,3.4-2.3,4.7
					C883.1,145,872.2,150.9,855.6,150.9L855.6,150.9z"/>
			</g>
		</g>
	</g>
</g>
</svg>
